<?xml version="1.0" standalone="no"?>
<!DOCTYPE svg PUBLIC "-//W3C//DTD SVG 20010904//EN"
 "http://www.w3.org/TR/2001/REC-SVG-20010904/DTD/svg10.dtd">
<svg version="1.0" xmlns="http://www.w3.org/2000/svg"
 width="494.000000pt" height="494.000000pt" viewBox="0 0 494.000000 494.000000"
 preserveAspectRatio="xMidYMid meet">
<metadata>
Created by potrace 1.14, written by Peter Selinger 2001-2017
</metadata>
<g transform="translate(0.000000,494.000000) scale(0.100000,-0.100000)"
fill="#000000" stroke="none">
<path d="M730 3788 c-78 -12 -169 -44 -224 -78 -26 -17 -49 -30 -51 -30 -6 0
-48 -36 -100 -85 -114 -107 -207 -293 -239 -475 -16 -90 -14 -307 3 -338 6
-11 8 -21 6 -24 -3 -3 2 -29 11 -59 79 -267 276 -485 501 -555 126 -38 305
-23 424 36 66 32 168 100 188 124 12 15 10 15 -25 0 -107 -45 -266 -15 -379
71 -260 197 -319 695 -122 1030 41 69 122 141 205 182 62 31 84 37 152 39 75
3 122 -5 163 -27 39 -21 1 21 -59 67 -139 105 -292 146 -454 122z"/>
<path d="M983 3506 c-178 -85 -293 -329 -279 -591 5 -94 6 -102 26 -175 67
-250 271 -400 459 -338 32 10 101 46 101 53 0 1 -19 -1 -42 -6 -182 -33 -376
133 -415 356 -2 17 -8 50 -13 74 -11 59 -3 181 16 255 40 155 134 271 254 316
38 14 149 22 165 12 16 -10 36 -11 30 -2 -3 4 -26 21 -52 36 -70 40 -177 45
-250 10z"/>
<path d="M4792 3479 c-13 -5 -33 -11 -45 -14 -12 -2 -49 -11 -83 -19 -104 -26
-406 -81 -494 -90 -30 -3 -65 -8 -78 -11 -13 -2 -53 -7 -90 -10 -37 -3 -94 -8
-127 -11 -375 -32 -945 -36 -1275 -9 -284 23 -668 33 -869 21 -99 -5 -122 -10
-178 -37 -92 -44 -276 -229 -288 -288 -3 -17 1 -21 23 -21 82 0 231 -61 477
-195 191 -104 393 -174 545 -191 127 -13 405 -3 423 15 5 5 -22 14 -60 20 -81
15 -236 48 -278 61 -78 24 -246 80 -295 100 -84 34 -94 38 -103 39 -16 2 -108
54 -103 58 2 3 13 0 23 -6 47 -25 291 -101 373 -117 14 -3 32 -7 40 -9 8 -2
31 -7 50 -10 19 -3 58 -10 85 -15 93 -18 180 -24 355 -24 159 0 334 9 349 18
3 2 29 7 56 10 83 10 159 24 325 61 44 10 221 57 260 69 41 13 23 14 -220 14
-302 -1 -488 7 -645 27 -22 3 -60 8 -85 11 -25 3 -67 10 -95 15 -27 5 -63 11
-80 13 -73 10 -181 27 -195 31 -8 2 -37 7 -65 10 -27 3 -63 7 -80 10 -16 2
-61 7 -100 10 -94 8 -151 13 -207 20 -63 7 -228 17 -305 19 -34 1 -65 5 -70 9
-7 8 352 1 365 -7 4 -2 41 -7 82 -11 41 -4 86 -9 100 -10 14 -2 48 -6 75 -9
57 -6 120 -13 185 -21 25 -3 63 -8 85 -10 22 -2 58 -6 80 -9 264 -33 808 -39
960 -10 11 2 40 6 65 9 366 42 842 229 1105 435 33 25 69 51 80 58 19 11 19
11 -5 11 -14 0 -35 -4 -48 -10z m-3142 -418 c0 -3 -28 -7 -62 -9 -35 -1 -71
-5 -80 -8 -10 -3 -18 -1 -18 5 0 5 17 11 38 13 70 6 122 5 122 -1z m-160 -32
c0 -4 -28 -7 -62 -6 -35 0 -75 -3 -91 -6 -15 -3 -25 -2 -22 2 5 9 29 14 110
27 22 3 42 8 44 10 5 5 21 -17 21 -27z m40 -9 c0 -5 -7 -7 -15 -4 -8 4 -15 8
-15 10 0 2 7 4 15 4 8 0 15 -4 15 -10z m37 -6 c-3 -3 -12 -4 -19 -1 -8 3 -5 6
6 6 11 1 17 -2 13 -5z m57 -13 c3 -4 -6 -6 -19 -3 -14 2 -25 6 -25 8 0 8 39 4
44 -5z m111 -41 c3 -6 -1 -7 -9 -4 -18 7 -21 14 -7 14 6 0 13 -4 16 -10z m55
-26 c0 -2 -9 0 -20 6 -11 6 -20 13 -20 16 0 2 9 0 20 -6 11 -6 20 -13 20 -16z
m61 -19 c19 -8 29 -14 23 -15 -7 0 -27 7 -45 15 -19 8 -29 14 -23 15 7 0 27
-7 45 -15z"/>
<path d="M1163 3310 c-61 -14 -119 -77 -152 -165 -77 -207 -15 -472 125 -531
39 -16 106 -12 139 10 24 16 34 36 17 36 -20 0 -85 77 -109 129 -67 144 -24
377 83 451 19 12 34 26 34 29 0 10 -51 38 -80 43 -14 3 -39 2 -57 -2z"/>
<path d="M2250 1938 c0 -27 3 -38 9 -30 7 12 73 18 154 13 17 -1 18 -14 16
-193 l-1 -193 23 1 c40 2 41 3 33 27 -4 12 -6 38 -5 57 1 19 2 42 2 50 -3 81
-1 243 3 247 10 10 156 8 160 -2 6 -17 18 2 20 34 2 29 -15 43 -28 23 -6 -10
-357 -9 -374 2 -9 5 -12 -4 -12 -36z"/>
<path d="M941 1959 c-101 -30 -168 -125 -158 -222 7 -71 31 -116 80 -153 62
-47 107 -58 205 -51 76 6 87 4 113 -15 16 -12 29 -28 29 -37 0 -10 7 -8 25 9
32 30 31 32 -5 48 -37 17 -37 25 -2 60 61 61 79 159 43 239 -40 86 -114 130
-224 131 -40 0 -87 -4 -106 -9z m174 -42 c43 -14 95 -55 107 -85 6 -15 12 -51
14 -81 3 -56 -9 -85 -54 -130 -23 -23 -25 -23 -58 -7 -36 17 -71 20 -98 10
-25 -10 -19 -22 9 -17 22 5 55 -15 55 -32 0 -3 -26 -5 -59 -4 -122 4 -201 77
-198 182 2 57 31 114 71 140 52 34 146 45 211 24z"/>
<path d="M1379 1961 c-1 -3 0 -10 2 -16 1 -5 4 -73 5 -150 1 -77 3 -150 3
-162 1 -29 48 -81 81 -91 14 -3 68 -7 120 -7 77 0 101 4 127 19 53 32 60 59
60 232 1 112 4 159 13 164 16 10 2 16 -35 16 -24 -1 -30 -5 -28 -21 6 -46 5
-304 -1 -323 -11 -32 -71 -51 -156 -48 -79 3 -116 17 -127 51 -4 11 -7 87 -8
168 0 123 2 150 15 157 13 8 13 10 0 11 -8 0 -27 2 -42 3 -16 2 -29 0 -29 -3z"/>
<path d="M2012 1962 c-5 -1 -8 -11 -5 -20 2 -10 -7 -40 -20 -67 -14 -28 -35
-72 -47 -100 -49 -110 -101 -214 -110 -220 -6 -4 -8 -10 -6 -14 4 -6 30 -7 81
-2 6 1 4 5 -3 9 -19 13 22 100 51 106 12 3 65 5 117 4 l95 -1 22 -51 c15 -37
18 -53 10 -58 -13 -8 -10 -9 46 -12 21 -1 40 1 43 6 3 4 0 8 -6 8 -6 0 -29 39
-51 88 -23 48 -54 116 -71 152 -16 36 -38 82 -48 103 -11 21 -16 45 -13 53 3
8 -1 15 -8 15 -41 4 -67 5 -77 1z m87 -162 c39 -80 46 -100 32 -101 -91 -4
-155 -3 -163 2 -5 4 7 43 31 94 23 48 41 91 41 96 0 23 14 2 59 -91z"/>
<path d="M2726 1950 c8 -20 9 -384 1 -398 -11 -16 9 -18 178 -16 88 0 165 -3
172 -8 13 -10 20 -1 18 22 -1 8 -3 24 -4 35 -1 16 -3 17 -11 5 -7 -11 -37 -14
-145 -15 -81 0 -139 4 -144 10 -10 13 -8 347 2 363 8 12 6 13 -46 16 -21 2
-26 -2 -21 -14z"/>
<path d="M3344 1962 c-15 -2 -20 -9 -17 -20 2 -10 -30 -88 -71 -175 -42 -86
-76 -161 -76 -166 0 -4 -9 -20 -21 -35 -11 -14 -19 -26 -17 -27 2 0 20 -2 40
-3 30 -1 37 2 33 14 -2 8 6 35 18 60 l22 45 113 1 113 1 24 -47 c18 -35 21
-50 12 -59 -11 -11 -2 -13 48 -13 46 0 50 1 32 15 -14 10 -57 96 -144 287 -13
30 -29 63 -34 73 -6 10 -8 26 -5 35 6 17 -17 22 -70 14z m45 -94 c5 -13 23
-54 41 -91 17 -38 29 -71 26 -74 -8 -8 -155 -10 -168 -2 -6 4 -3 23 11 53 12
25 30 66 41 91 23 50 36 56 49 23z"/>
<path d="M3770 1961 c-102 -31 -142 -105 -95 -178 20 -30 96 -51 204 -55 87
-4 95 -6 117 -31 31 -36 18 -76 -34 -105 -51 -28 -157 -25 -224 7 -44 21 -53
31 -49 54 2 15 -8 6 -28 -27 -26 -42 -26 -43 2 -49 12 -3 48 -14 79 -26 105
-39 227 -24 285 34 28 28 33 40 33 78 0 37 -6 51 -29 75 -16 16 -35 29 -43 30
-239 15 -272 23 -280 65 -6 33 6 53 43 73 67 34 199 25 246 -18 l21 -20 16 30
c18 35 20 46 7 38 -4 -3 -33 3 -64 14 -58 20 -158 25 -207 11z"/>
<path d="M1244 1368 c-4 -13 -22 -53 -40 -90 -22 -46 -28 -68 -19 -68 7 0 16
11 19 24 11 43 107 40 121 -3 3 -12 13 -21 20 -21 10 0 7 15 -14 58 -15 31
-34 72 -41 90 -14 37 -36 42 -46 10z m52 -85 c-10 -10 -66 -11 -66 -2 0 6 7
26 16 47 l16 37 19 -38 c11 -22 18 -41 15 -44z"/>
<path d="M1395 1285 l-1 -73 63 -4 c35 -2 63 0 63 5 0 8 -4 8 -65 11 -40 1
-41 2 -36 47 1 7 15 10 36 7 22 -2 34 0 32 6 -2 6 -18 10 -34 9 -21 -2 -33 2
-37 13 -11 28 11 42 59 38 25 -3 45 0 45 5 0 5 -28 9 -62 9 l-63 0 0 -73z"/>
<path d="M1559 1346 c-6 -79 -3 -136 7 -136 6 0 11 14 10 31 -1 27 3 32 26 35
21 2 32 -5 50 -32 34 -49 54 -47 21 3 -16 24 -16 26 2 39 24 18 27 40 8 56
-20 16 -123 20 -124 4z m115 -21 c8 -22 -20 -37 -61 -33 -30 2 -38 7 -38 23 0
32 87 41 99 10z"/>
<path d="M1753 1340 c-27 -16 -33 -26 -33 -54 0 -47 31 -76 83 -76 72 0 106
40 85 100 -17 51 -79 65 -135 30z m96 -4 c7 -5 16 -19 21 -32 26 -67 -62 -113
-114 -61 -16 17 -22 32 -19 49 8 42 73 68 112 44z"/>
<path d="M1933 1285 c0 -41 4 -75 8 -75 5 0 9 26 9 58 l1 57 24 -47 c14 -26
29 -49 34 -53 6 -3 22 17 36 45 14 27 27 50 29 50 1 0 2 -25 2 -55 -1 -33 3
-55 9 -55 7 0 11 28 11 74 -1 63 -4 74 -18 73 -9 -1 -16 -4 -15 -7 1 -3 -9
-27 -22 -54 l-25 -47 -23 38 c-13 21 -23 43 -23 49 0 9 -21 24 -34 24 -1 0 -3
-34 -3 -75z"/>
<path d="M2156 1335 c-31 -33 -29 -80 4 -107 76 -61 198 27 136 98 -22 26 -96
46 -96 26 0 -6 8 -9 18 -7 59 9 95 -62 52 -105 -26 -26 -70 -26 -98 0 -28 26
-28 50 -1 84 29 36 16 45 -15 11z"/>
<path d="M2348 1284 l-3 -74 56 0 c63 0 89 19 95 69 6 49 -24 75 -89 77 l-55
3 -4 -75z m103 51 c10 -4 19 -12 20 -18 0 -7 2 -22 5 -35 6 -33 -28 -62 -68
-59 -32 2 -33 3 -36 56 -4 69 8 78 79 56z"/>
<path d="M2534 1284 l0 -72 63 -4 c38 -2 63 1 63 7 0 6 -17 9 -37 8 -56 -3
-73 5 -69 30 3 18 10 22 40 22 20 -1 35 4 33 9 -2 5 -19 10 -38 10 -27 1 -34
5 -34 21 -1 28 10 33 61 29 24 -2 44 1 44 6 0 5 -28 8 -62 8 l-63 -1 -1 -73z"/>
<path d="M2705 1352 c-5 -4 -10 -37 -10 -74 l0 -67 63 -3 c37 -2 62 1 62 7 0
6 -17 9 -37 8 -67 -4 -70 0 -67 72 1 36 1 65 1 65 -1 0 -6 -4 -12 -8z"/>
<path d="M2850 1286 l0 -74 60 -4 c38 -2 60 1 60 8 0 6 -20 9 -50 8 l-50 -3 0
70 c0 39 -4 69 -10 69 -6 0 -10 -31 -10 -74z"/>
<path d="M3000 1285 c0 -41 4 -75 9 -75 15 0 18 139 4 145 -10 3 -13 -15 -13
-70z"/>
<path d="M3070 1284 c0 -41 4 -74 9 -74 6 0 8 25 7 55 -2 30 1 55 5 55 4 0 29
-25 56 -55 26 -30 53 -55 58 -55 6 0 10 32 10 75 0 45 -4 75 -10 75 -7 0 -10
-22 -9 -55 1 -30 -1 -55 -3 -55 -8 0 -81 79 -85 92 -2 6 -12 12 -21 14 -15 2
-17 -8 -17 -72z"/>
<path d="M3275 1335 c-32 -31 -33 -77 -3 -105 24 -22 28 -23 73 -20 44 3 65
17 65 44 0 24 -29 38 -58 28 -23 -7 -12 -22 13 -16 20 5 25 3 25 -14 0 -32
-71 -40 -106 -11 -21 18 -17 63 9 86 23 22 67 23 92 3 9 -8 15 -8 20 0 3 5 -6
15 -20 20 -45 17 -84 12 -110 -15z"/>
</g>
</svg>
